<mxfile host="app.diagrams.net" modified="2024-04-02T21:29:11.368Z" agent="Mozilla/5.0 (Windows NT 10.0; Win64; x64) AppleWebKit/537.36 (KHTML, like Gecko) Chrome/123.0.0.0 Safari/537.36" etag="2sT_JWUsa7iav5ELwwtQ" version="24.2.1" type="device">
  <diagram name="Page-1" id="peT0Tku6k0CXOl4bbgea">
    <mxGraphModel dx="1434" dy="1186" grid="1" gridSize="10" guides="0" tooltips="1" connect="1" arrows="1" fold="1" page="0" pageScale="1" pageWidth="1654" pageHeight="1169" background="#000000" math="0" shadow="0">
      <root>
        <mxCell id="0" />
        <mxCell id="1" parent="0" />
        <mxCell id="YYHcGzh3mQ78TLflmlGY-2" style="edgeStyle=orthogonalEdgeStyle;rounded=0;orthogonalLoop=1;jettySize=auto;html=1;exitX=1;exitY=0.5;exitDx=0;exitDy=0;entryX=0;entryY=0.5;entryDx=0;entryDy=0;strokeColor=#FFFFFF;" edge="1" parent="1" source="ILToKURg6AyfO6B2Wtye-4" target="fj_ThK01r2m-MzO2AXcp-57">
          <mxGeometry relative="1" as="geometry">
            <mxPoint x="1188" y="-155" as="targetPoint" />
          </mxGeometry>
        </mxCell>
        <mxCell id="ILToKURg6AyfO6B2Wtye-4" value="&lt;p style=&quot;margin:0px;margin-top:4px;text-align:center;&quot;&gt;&lt;b&gt;MainWindow&lt;/b&gt;&lt;/p&gt;&lt;hr style=&quot;border-style:solid;&quot; size=&quot;1&quot;&gt;&lt;p style=&quot;margin:0px;margin-left:4px;&quot;&gt;&lt;br&gt;&lt;/p&gt;&lt;hr style=&quot;border-style:solid;&quot; size=&quot;1&quot;&gt;&lt;p style=&quot;margin:0px;margin-left:4px;&quot;&gt;&lt;br&gt;&lt;/p&gt;" style="verticalAlign=top;align=left;overflow=fill;html=1;whiteSpace=wrap;labelBackgroundColor=none;fillColor=none;fontColor=#FFFFFF;strokeColor=#FFFFFF;strokeWidth=2;" parent="1" vertex="1">
          <mxGeometry x="841" y="-200" width="240" height="120" as="geometry" />
        </mxCell>
        <mxCell id="ILToKURg6AyfO6B2Wtye-16" value="&lt;p style=&quot;margin:0px;margin-top:4px;text-align:center;&quot;&gt;&lt;i&gt;&amp;lt;&amp;lt;abstract&amp;gt;&amp;gt;&lt;/i&gt;&lt;br&gt;&lt;b&gt;TowerType&lt;/b&gt;&lt;/p&gt;&lt;hr style=&quot;border-style:solid;&quot; size=&quot;1&quot;&gt;&lt;p style=&quot;margin: 0px 0px 0px 4px;&quot;&gt;- resourceAmount: int&lt;/p&gt;&lt;p style=&quot;margin: 0px 0px 0px 4px;&quot;&gt;- reloadSpeed: int&lt;/p&gt;&lt;p style=&quot;margin: 0px 0px 0px 4px;&quot;&gt;- resourceType: ResourceType&lt;/p&gt;&lt;hr style=&quot;border-style:solid;&quot; size=&quot;1&quot;&gt;&lt;p style=&quot;margin:0px;margin-left:4px;&quot;&gt;+ getResourceAmount(): int&lt;/p&gt;&lt;p style=&quot;margin:0px;margin-left:4px;&quot;&gt;+ getReloadSpeed(): int&lt;/p&gt;&lt;p style=&quot;margin:0px;margin-left:4px;&quot;&gt;+ getResourceType: ResourceType&lt;/p&gt;" style="verticalAlign=top;align=left;overflow=fill;html=1;whiteSpace=wrap;labelBackgroundColor=none;fillColor=none;fontColor=#FFFFFF;strokeColor=#FFFFFF;strokeWidth=2;" parent="1" vertex="1">
          <mxGeometry x="1309" y="553" width="200" height="200" as="geometry" />
        </mxCell>
        <mxCell id="ILToKURg6AyfO6B2Wtye-17" value="&lt;p style=&quot;margin:0px;margin-top:4px;text-align:center;&quot;&gt;&lt;i&gt;&amp;lt;&amp;lt;enumeration&amp;gt;&amp;gt;&lt;/i&gt;&lt;br&gt;&lt;b&gt;ResourceType&lt;/b&gt;&lt;/p&gt;&lt;hr style=&quot;border-style:solid;&quot; size=&quot;1&quot;&gt;&lt;p style=&quot;margin:0px;margin-left:4px;&quot;&gt;+ RESOURCE_ONE: ResourceType&lt;br&gt;+ RESOURCE_TWO:&amp;nbsp;&lt;span style=&quot;background-color: initial;&quot;&gt;ResourceType&lt;/span&gt;&lt;br&gt;&lt;/p&gt;&lt;p style=&quot;margin:0px;margin-left:4px;&quot;&gt;+ RESOURCE_THREE:&amp;nbsp;&lt;span style=&quot;background-color: initial;&quot;&gt;ResourceType&lt;/span&gt;&lt;br&gt;&lt;/p&gt;&lt;p style=&quot;margin:0px;margin-left:4px;&quot;&gt;+ RESOURCE_FOUR:&amp;nbsp;&lt;span style=&quot;background-color: initial;&quot;&gt;ResourceType&lt;/span&gt;&lt;br&gt;&lt;/p&gt;&lt;p style=&quot;margin:0px;margin-left:4px;&quot;&gt;+ RESOURCE_FIVE:&amp;nbsp;&lt;span style=&quot;background-color: initial;&quot;&gt;ResourceType&lt;/span&gt;&lt;br&gt;&lt;/p&gt;&lt;p style=&quot;margin:0px;margin-left:4px;&quot;&gt;- name: String&lt;/p&gt;&lt;hr style=&quot;border-style:solid;&quot; size=&quot;1&quot;&gt;&lt;p style=&quot;margin:0px;margin-left:4px;&quot;&gt;+ getName()&lt;/p&gt;" style="verticalAlign=top;align=left;overflow=fill;html=1;whiteSpace=wrap;labelBackgroundColor=none;fillColor=none;fontColor=#FFFFFF;strokeColor=#FFFFFF;strokeWidth=2;" parent="1" vertex="1">
          <mxGeometry x="1290" y="827" width="240" height="175" as="geometry" />
        </mxCell>
        <mxCell id="ILToKURg6AyfO6B2Wtye-19" value="&lt;p style=&quot;margin:0px;margin-top:4px;text-align:center;&quot;&gt;&lt;i&gt;&amp;lt;&amp;lt;&lt;/i&gt;&lt;i&gt;enumeration&lt;/i&gt;&lt;i&gt;&amp;gt;&amp;gt;&lt;/i&gt;&lt;br&gt;&lt;b&gt;GameDifficulty&lt;/b&gt;&lt;/p&gt;&lt;hr style=&quot;border-style:solid;&quot; size=&quot;1&quot;&gt;&lt;p style=&quot;margin:0px;margin-left:4px;&quot;&gt;+ EASY: GameDifficulty&lt;/p&gt;&lt;p style=&quot;margin:0px;margin-left:4px;&quot;&gt;+ NORMAL:&amp;nbsp;&lt;span style=&quot;background-color: initial;&quot;&gt;GameDifficulty&lt;/span&gt;&lt;/p&gt;&lt;p style=&quot;margin:0px;margin-left:4px;&quot;&gt;+ HARD: GameDifficulty&lt;/p&gt;&lt;p style=&quot;margin:0px;margin-left:4px;&quot;&gt;- name: String&lt;/p&gt;&lt;p style=&quot;margin:0px;margin-left:4px;&quot;&gt;- startingMoney: double&lt;/p&gt;&lt;p style=&quot;margin:0px;margin-left:4px;&quot;&gt;- moneyEarnMultiplier: double&lt;/p&gt;&lt;p style=&quot;margin:0px;margin-left:4px;&quot;&gt;- towerReloadMultiplier: double&lt;br&gt;&lt;/p&gt;&lt;p style=&quot;margin:0px;margin-left:4px;&quot;&gt;- cartVelocityMutiplier: double&lt;/p&gt;&lt;p style=&quot;margin:0px;margin-left:4px;&quot;&gt;- trackDistance: int&lt;/p&gt;&lt;hr style=&quot;border-style:solid;&quot; size=&quot;1&quot;&gt;&lt;p style=&quot;margin:0px;margin-left:4px;&quot;&gt;+ getName(): String&lt;/p&gt;&lt;p style=&quot;margin:0px;margin-left:4px;&quot;&gt;+ getStartingMoney(): double&lt;/p&gt;&lt;p style=&quot;margin:0px;margin-left:4px;&quot;&gt;+ getMoneyEarnMultiplier(): double&lt;/p&gt;&lt;p style=&quot;margin:0px;margin-left:4px;&quot;&gt;+ getTowerReloadMultiplier(): double&lt;/p&gt;&lt;p style=&quot;margin:0px;margin-left:4px;&quot;&gt;+ getCartVelocityMultiplier(): double&lt;/p&gt;&lt;p style=&quot;margin:0px;margin-left:4px;&quot;&gt;+ getTrackDistance(): int&lt;/p&gt;" style="verticalAlign=top;align=left;overflow=fill;html=1;whiteSpace=wrap;labelBackgroundColor=none;fillColor=none;fontColor=#FFFFFF;strokeColor=#FFFFFF;strokeWidth=2;" parent="1" vertex="1">
          <mxGeometry x="400" y="770" width="240" height="280" as="geometry" />
        </mxCell>
        <mxCell id="ILToKURg6AyfO6B2Wtye-20" value="&lt;p style=&quot;margin:0px;margin-top:4px;text-align:center;&quot;&gt;&lt;b&gt;Cart&lt;/b&gt;&lt;/p&gt;&lt;hr style=&quot;border-style:solid;&quot; size=&quot;1&quot;&gt;&lt;p style=&quot;margin:0px;margin-left:4px;&quot;&gt;- maxCapacity: int&lt;/p&gt;&lt;p style=&quot;margin:0px;margin-left:4px;&quot;&gt;- capacity: int&lt;/p&gt;&lt;p style=&quot;margin:0px;margin-left:4px;&quot;&gt;- acceptedResources: EnumSet&amp;lt;ResourceType&amp;gt;&lt;/p&gt;&lt;p style=&quot;margin:0px;margin-left:4px;&quot;&gt;- velocity: float&lt;/p&gt;&lt;p style=&quot;margin:0px;margin-left:4px;&quot;&gt;- trackLength: int&lt;/p&gt;&lt;hr style=&quot;border-style:solid;&quot; size=&quot;1&quot;&gt;&lt;p style=&quot;margin:0px;margin-left:4px;&quot;&gt;+ getMaxCapacity(): int&lt;/p&gt;&lt;p style=&quot;margin:0px;margin-left:4px;&quot;&gt;+ getCapacity(): int&lt;/p&gt;&lt;p style=&quot;margin:0px;margin-left:4px;&quot;&gt;+ isFull(): boolean&lt;br&gt;&lt;/p&gt;&lt;p style=&quot;margin:0px;margin-left:4px;&quot;&gt;+ getAcceptedResources(): EnumSet&amp;lt;ResourceType&amp;gt;&lt;/p&gt;&lt;p style=&quot;margin:0px;margin-left:4px;&quot;&gt;+ getTrackLength(): int&lt;/p&gt;" style="verticalAlign=top;align=left;overflow=fill;html=1;whiteSpace=wrap;labelBackgroundColor=none;fillColor=none;fontColor=#FFFFFF;strokeColor=#FFFFFF;strokeWidth=2;" parent="1" vertex="1">
          <mxGeometry x="720" y="640" width="320" height="193" as="geometry" />
        </mxCell>
        <mxCell id="ILToKURg6AyfO6B2Wtye-21" value="&lt;p style=&quot;margin: 4px 0px 0px; text-align: center; font-size: 12px;&quot;&gt;&lt;b style=&quot;font-size: 12px;&quot;&gt;GameEnviroment&lt;/b&gt;&lt;/p&gt;&lt;hr style=&quot;border-style: solid; font-size: 12px;&quot;&gt;&lt;p style=&quot;margin: 0px 0px 0px 4px; font-size: 12px;&quot;&gt;&lt;span style=&quot;background-color: initial; font-size: 12px;&quot;&gt;- playerName: String&lt;/span&gt;&lt;br style=&quot;font-size: 12px;&quot;&gt;&lt;/p&gt;&lt;p style=&quot;margin: 0px 0px 0px 4px; font-size: 12px;&quot;&gt;- roundDifficulty: GameDifficulty&lt;/p&gt;&lt;p style=&quot;margin: 0px 0px 0px 4px; font-size: 12px;&quot;&gt;- inventory: ArrayList&amp;lt;Item&amp;gt;&lt;/p&gt;&lt;p style=&quot;margin: 0px 0px 0px 4px; font-size: 12px;&quot;&gt;- activeTowers: ArrayList&amp;lt;Tower&amp;gt;&lt;/p&gt;&lt;p style=&quot;margin: 0px 0px 0px 4px; font-size: 12px;&quot;&gt;- reservedTowers: ArrayList&amp;lt;Tower&amp;gt;&lt;/p&gt;&lt;p style=&quot;margin: 0px 0px 0px 4px; font-size: 12px;&quot;&gt;- money: double&lt;/p&gt;&lt;p style=&quot;margin: 0px 0px 0px 4px; font-size: 12px;&quot;&gt;- currentRound: GameRound&lt;/p&gt;&lt;p style=&quot;margin: 0px 0px 0px 4px; font-size: 12px;&quot;&gt;- shop: Shop&lt;/p&gt;&lt;hr style=&quot;border-style: solid; font-size: 12px;&quot;&gt;&lt;p style=&quot;margin: 0px 0px 0px 4px; font-size: 12px;&quot;&gt;&lt;br&gt;&lt;/p&gt;" style="verticalAlign=top;align=left;overflow=fill;html=1;whiteSpace=wrap;labelBackgroundColor=none;fontColor=#FFFFFF;strokeColor=#FFFFFF;fillColor=none;strokeWidth=2;fontSize=12;" parent="1" vertex="1">
          <mxGeometry x="360" y="200" width="240" height="200" as="geometry" />
        </mxCell>
        <mxCell id="fj_ThK01r2m-MzO2AXcp-6" style="edgeStyle=orthogonalEdgeStyle;rounded=0;orthogonalLoop=1;jettySize=auto;html=1;exitX=1;exitY=0.5;exitDx=0;exitDy=0;" parent="1" source="ILToKURg6AyfO6B2Wtye-24" edge="1">
          <mxGeometry relative="1" as="geometry">
            <mxPoint x="1653" y="646" as="targetPoint" />
          </mxGeometry>
        </mxCell>
        <mxCell id="ILToKURg6AyfO6B2Wtye-24" value="&lt;p style=&quot;margin:0px;margin-top:4px;text-align:center;&quot;&gt;&lt;b&gt;Item&lt;/b&gt;&lt;/p&gt;&lt;hr style=&quot;border-style:solid;&quot; size=&quot;1&quot;&gt;&lt;p style=&quot;margin:0px;margin-left:4px;&quot;&gt;- itemType: ItemType&lt;/p&gt;&lt;p style=&quot;margin:0px;margin-left:4px;&quot;&gt;- quantity: int&lt;/p&gt;&lt;hr style=&quot;border-style:solid;&quot; size=&quot;1&quot;&gt;&lt;p style=&quot;margin:0px;margin-left:4px;&quot;&gt;+ getItemType(): ItemType&lt;/p&gt;" style="verticalAlign=top;align=left;overflow=fill;html=1;whiteSpace=wrap;labelBackgroundColor=none;fillColor=none;fontColor=#FFFFFF;strokeColor=#FFFFFF;strokeWidth=2;" parent="1" vertex="1">
          <mxGeometry x="1650" y="557" width="160" height="170" as="geometry" />
        </mxCell>
        <mxCell id="ILToKURg6AyfO6B2Wtye-27" value="" style="endArrow=none;dashed=1;endFill=0;endSize=12;html=1;rounded=0;exitX=0.75;exitY=1;exitDx=0;exitDy=0;entryX=0.5;entryY=0;entryDx=0;entryDy=0;labelBackgroundColor=none;fontColor=#FFFFFF;strokeColor=#FFFFFF;edgeStyle=orthogonalEdgeStyle;startArrow=block;startFill=0;startSize=12;" parent="1" source="ILToKURg6AyfO6B2Wtye-42" target="ILToKURg6AyfO6B2Wtye-24" edge="1">
          <mxGeometry width="160" relative="1" as="geometry">
            <mxPoint x="1520.5" y="530" as="sourcePoint" />
            <mxPoint x="1173" y="380" as="targetPoint" />
          </mxGeometry>
        </mxCell>
        <mxCell id="ILToKURg6AyfO6B2Wtye-31" value="&lt;p style=&quot;margin:0px;margin-top:4px;text-align:center;&quot;&gt;&lt;i&gt;&amp;lt;&amp;lt;&lt;/i&gt;&lt;i&gt;enumeration&lt;/i&gt;&lt;i&gt;&amp;gt;&amp;gt;&lt;/i&gt;&lt;br&gt;&lt;b&gt;ItemType&lt;/b&gt;&lt;/p&gt;&lt;hr style=&quot;border-style:solid;&quot; size=&quot;1&quot;&gt;&lt;p style=&quot;margin:0px;margin-left:4px;&quot;&gt;+ TYPE_ONE&lt;br&gt;+ TYPE_TWO&lt;/p&gt;&lt;p style=&quot;margin:0px;margin-left:4px;&quot;&gt;+ TYPE_THREE&lt;/p&gt;&lt;p style=&quot;margin:0px;margin-left:4px;&quot;&gt;+ TYPE_FOUR&lt;/p&gt;&lt;p style=&quot;margin:0px;margin-left:4px;&quot;&gt;+ TYPE_FIVE&lt;/p&gt;&lt;p style=&quot;margin:0px;margin-left:4px;&quot;&gt;- icon: BufferedImage&lt;/p&gt;&lt;hr style=&quot;border-style:solid;&quot; size=&quot;1&quot;&gt;&lt;p style=&quot;margin:0px;margin-left:4px;&quot;&gt;&lt;br&gt;&lt;/p&gt;" style="verticalAlign=top;align=left;overflow=fill;html=1;whiteSpace=wrap;labelBackgroundColor=none;fillColor=none;fontColor=#FFFFFF;strokeColor=#FFFFFF;strokeWidth=2;" parent="1" vertex="1">
          <mxGeometry x="1635" y="812" width="190" height="160" as="geometry" />
        </mxCell>
        <mxCell id="ILToKURg6AyfO6B2Wtye-40" value="&lt;p style=&quot;margin:0px;margin-top:4px;text-align:center;&quot;&gt;&lt;b&gt;Tower&lt;/b&gt;&lt;/p&gt;&lt;hr style=&quot;border-style:solid;&quot; size=&quot;1&quot;&gt;&lt;p style=&quot;margin:0px;margin-left:4px;&quot;&gt;- type: TowerType&lt;/p&gt;&lt;p style=&quot;margin:0px;margin-left:4px;&quot;&gt;- upgrades: HashSet&amp;lt;TowerUpgrade&amp;gt;&lt;/p&gt;&lt;p style=&quot;margin:0px;margin-left:4px;&quot;&gt;- experience: int&lt;/p&gt;&lt;hr style=&quot;border-style:solid;&quot; size=&quot;1&quot;&gt;&lt;p style=&quot;margin:0px;margin-left:4px;&quot;&gt;+ getType(): TowerType&lt;/p&gt;&lt;p style=&quot;margin:0px;margin-left:4px;&quot;&gt;+ getUpgrades(): HashSet&amp;lt;TowerUpgrade&amp;gt;&lt;/p&gt;&lt;p style=&quot;margin:0px;margin-left:4px;&quot;&gt;+ hasUpgrade(TowerUpgrade): boolean&lt;/p&gt;&lt;p style=&quot;margin:0px;margin-left:4px;&quot;&gt;+ getExperience(): int&lt;/p&gt;" style="verticalAlign=top;align=left;overflow=fill;html=1;whiteSpace=wrap;labelBackgroundColor=none;fillColor=none;fontColor=#FFFFFF;strokeColor=#FFFFFF;strokeWidth=2;" parent="1" vertex="1">
          <mxGeometry x="840" y="200" width="240" height="160" as="geometry" />
        </mxCell>
        <mxCell id="ILToKURg6AyfO6B2Wtye-42" value="&lt;p style=&quot;margin:0px;margin-top:4px;text-align:center;&quot;&gt;&lt;i style=&quot;background-color: initial;&quot;&gt;&amp;lt;&amp;lt;interface&amp;gt;&amp;gt;&lt;/i&gt;&lt;/p&gt;&lt;p style=&quot;margin:0px;margin-top:4px;text-align:center;&quot;&gt;&lt;b&gt;Purchasable&lt;/b&gt;&lt;i style=&quot;background-color: initial;&quot;&gt;&lt;br&gt;&lt;/i&gt;&lt;/p&gt;&lt;hr style=&quot;border-style:solid;&quot; size=&quot;1&quot;&gt;&lt;div style=&quot;height:2px;&quot;&gt;&lt;p style=&quot;margin: 0px 0px 0px 4px;&quot;&gt;+ getName(): String&lt;/p&gt;&lt;p style=&quot;margin: 0px 0px 0px 4px;&quot;&gt;+ getDescription(): String&lt;/p&gt;&lt;p style=&quot;margin: 0px 0px 0px 4px;&quot;&gt;+ getCostPrice(): double&lt;/p&gt;&lt;p style=&quot;margin: 0px 0px 0px 4px;&quot;&gt;+ getSellPrice(): double&lt;/p&gt;&lt;p style=&quot;margin: 0px 0px 0px 4px;&quot;&gt;+ isSellable(): boolean&lt;/p&gt;&lt;/div&gt;" style="verticalAlign=top;align=left;overflow=fill;html=1;whiteSpace=wrap;labelBackgroundColor=none;fillColor=none;fontColor=#FFFFFF;strokeColor=#FFFFFF;strokeWidth=2;" parent="1" vertex="1">
          <mxGeometry x="1480" y="330" width="160" height="150" as="geometry" />
        </mxCell>
        <mxCell id="fj_ThK01r2m-MzO2AXcp-4" value="&lt;p style=&quot;margin:0px;margin-top:4px;text-align:center;&quot;&gt;&lt;i&gt;&amp;lt;&amp;lt;abstract&amp;gt;&amp;gt;&lt;/i&gt;&lt;br&gt;&lt;b&gt;GameRound&lt;/b&gt;&lt;/p&gt;&lt;hr style=&quot;border-style:solid;&quot; size=&quot;1&quot;&gt;&lt;p style=&quot;margin: 0px 0px 0px 4px;&quot;&gt;- carts: ArrayList&amp;lt;Cart&amp;gt;&lt;br&gt;&lt;/p&gt;&lt;p style=&quot;margin: 0px 0px 0px 4px;&quot;&gt;- difficulty: GameDifficulty&lt;/p&gt;&lt;p style=&quot;margin: 0px 0px 0px 4px;&quot;&gt;- startingMoney: double&lt;/p&gt;&lt;hr style=&quot;border-style:solid;&quot; size=&quot;1&quot;&gt;&lt;p style=&quot;margin:0px;margin-left:4px;&quot;&gt;+ getRoundNumber(): int&lt;br&gt;&lt;/p&gt;&lt;p style=&quot;margin:0px;margin-left:4px;&quot;&gt;+ hasNextRound(): boolean&lt;/p&gt;&lt;p style=&quot;margin:0px;margin-left:4px;&quot;&gt;+ createNextRound(): GameRound()&lt;/p&gt;&lt;p style=&quot;margin:0px;margin-left:4px;&quot;&gt;+ start()&lt;/p&gt;&lt;p style=&quot;margin:0px;margin-left:4px;&quot;&gt;+ tick()&amp;nbsp;&lt;/p&gt;" style="verticalAlign=top;align=left;overflow=fill;html=1;whiteSpace=wrap;labelBackgroundColor=none;fillColor=none;fontColor=#FFFFFF;strokeColor=#FFFFFF;strokeWidth=2;" parent="1" vertex="1">
          <mxGeometry x="400" y="490" width="240" height="200" as="geometry" />
        </mxCell>
        <mxCell id="fj_ThK01r2m-MzO2AXcp-9" value="" style="edgeStyle=segmentEdgeStyle;endArrow=classic;html=1;curved=0;rounded=0;endSize=8;startSize=8;" parent="1" edge="1">
          <mxGeometry width="50" height="50" relative="1" as="geometry">
            <mxPoint x="556" y="676" as="sourcePoint" />
            <mxPoint x="606" y="626" as="targetPoint" />
          </mxGeometry>
        </mxCell>
        <mxCell id="fj_ThK01r2m-MzO2AXcp-23" value="" style="endArrow=none;dashed=1;endFill=0;endSize=12;html=1;rounded=0;strokeColor=#FFFFFF;align=center;verticalAlign=middle;fontFamily=Helvetica;fontSize=11;fontColor=default;labelBackgroundColor=default;exitX=0.25;exitY=1;exitDx=0;exitDy=0;entryX=0.5;entryY=0;entryDx=0;entryDy=0;edgeStyle=orthogonalEdgeStyle;startArrow=block;startFill=0;startSize=12;" parent="1" source="ILToKURg6AyfO6B2Wtye-42" target="ILToKURg6AyfO6B2Wtye-16" edge="1">
          <mxGeometry width="160" relative="1" as="geometry">
            <mxPoint x="1094" y="521" as="sourcePoint" />
            <mxPoint x="1254" y="521" as="targetPoint" />
          </mxGeometry>
        </mxCell>
        <mxCell id="fj_ThK01r2m-MzO2AXcp-26" value="" style="endArrow=open;endFill=1;endSize=12;html=1;rounded=0;strokeColor=#FFFFFF;align=center;verticalAlign=middle;fontFamily=Helvetica;fontSize=11;fontColor=default;labelBackgroundColor=default;edgeStyle=segmentEdgeStyle;curved=0;exitX=0.5;exitY=1;exitDx=0;exitDy=0;entryX=0.5;entryY=0;entryDx=0;entryDy=0;" parent="1" source="ILToKURg6AyfO6B2Wtye-16" target="ILToKURg6AyfO6B2Wtye-17" edge="1">
          <mxGeometry width="160" relative="1" as="geometry">
            <mxPoint x="1094" y="721" as="sourcePoint" />
            <mxPoint x="1254" y="721" as="targetPoint" />
          </mxGeometry>
        </mxCell>
        <mxCell id="fj_ThK01r2m-MzO2AXcp-27" value="" style="endArrow=open;endFill=1;endSize=12;html=1;rounded=0;strokeColor=#FFFFFF;align=center;verticalAlign=middle;fontFamily=Helvetica;fontSize=11;fontColor=default;labelBackgroundColor=default;edgeStyle=segmentEdgeStyle;curved=0;entryX=0.5;entryY=0;entryDx=0;entryDy=0;exitX=0.5;exitY=1;exitDx=0;exitDy=0;" parent="1" source="ILToKURg6AyfO6B2Wtye-24" target="ILToKURg6AyfO6B2Wtye-31" edge="1">
          <mxGeometry width="160" relative="1" as="geometry">
            <mxPoint x="1094" y="721" as="sourcePoint" />
            <mxPoint x="1254" y="721" as="targetPoint" />
          </mxGeometry>
        </mxCell>
        <mxCell id="fj_ThK01r2m-MzO2AXcp-33" value="&lt;p style=&quot;margin:0px;margin-top:4px;text-align:center;&quot;&gt;&lt;b&gt;GameRoundOne&lt;/b&gt;&lt;/p&gt;&lt;p style=&quot;margin:0px;margin-left:4px;&quot;&gt;&lt;br&gt;&lt;/p&gt;" style="verticalAlign=top;align=left;overflow=fill;html=1;whiteSpace=wrap;labelBackgroundColor=none;fillColor=none;fontColor=#FFFFFF;strokeColor=#FFFFFF;strokeWidth=2;" parent="1" vertex="1">
          <mxGeometry x="190" y="440" width="127" height="24" as="geometry" />
        </mxCell>
        <mxCell id="fj_ThK01r2m-MzO2AXcp-34" value="&lt;p style=&quot;margin:0px;margin-top:4px;text-align:center;&quot;&gt;&lt;b&gt;GameRoundTwo&lt;/b&gt;&lt;/p&gt;&lt;p style=&quot;margin:0px;margin-left:4px;&quot;&gt;&lt;br&gt;&lt;/p&gt;" style="verticalAlign=top;align=left;overflow=fill;html=1;whiteSpace=wrap;labelBackgroundColor=none;fillColor=none;fontColor=#FFFFFF;strokeColor=#FFFFFF;strokeWidth=2;" parent="1" vertex="1">
          <mxGeometry x="190" y="480" width="127" height="24" as="geometry" />
        </mxCell>
        <mxCell id="fj_ThK01r2m-MzO2AXcp-35" value="&lt;p style=&quot;margin:0px;margin-top:4px;text-align:center;&quot;&gt;&lt;b&gt;GameRoundThree&lt;/b&gt;&lt;/p&gt;&lt;p style=&quot;margin:0px;margin-left:4px;&quot;&gt;&lt;br&gt;&lt;/p&gt;" style="verticalAlign=top;align=left;overflow=fill;html=1;whiteSpace=wrap;labelBackgroundColor=none;fillColor=none;fontColor=#FFFFFF;strokeColor=#FFFFFF;strokeWidth=2;" parent="1" vertex="1">
          <mxGeometry x="190" y="520" width="127" height="24" as="geometry" />
        </mxCell>
        <mxCell id="fj_ThK01r2m-MzO2AXcp-37" value="&lt;p style=&quot;margin:0px;margin-top:4px;text-align:center;&quot;&gt;&lt;b&gt;GameRoundThree&lt;/b&gt;&lt;/p&gt;&lt;p style=&quot;margin:0px;margin-left:4px;&quot;&gt;&lt;br&gt;&lt;/p&gt;" style="verticalAlign=top;align=left;overflow=fill;html=1;whiteSpace=wrap;labelBackgroundColor=none;fillColor=none;fontColor=#FFFFFF;strokeColor=#FFFFFF;strokeWidth=2;" parent="1" vertex="1">
          <mxGeometry x="190" y="560" width="127" height="24" as="geometry" />
        </mxCell>
        <mxCell id="fj_ThK01r2m-MzO2AXcp-38" value="&lt;p style=&quot;margin:0px;margin-top:4px;text-align:center;&quot;&gt;&lt;b&gt;GameRoundFour&lt;/b&gt;&lt;/p&gt;&lt;p style=&quot;margin:0px;margin-left:4px;&quot;&gt;&lt;br&gt;&lt;/p&gt;" style="verticalAlign=top;align=left;overflow=fill;html=1;whiteSpace=wrap;labelBackgroundColor=none;fillColor=none;fontColor=#FFFFFF;strokeColor=#FFFFFF;strokeWidth=2;" parent="1" vertex="1">
          <mxGeometry x="190" y="600" width="127" height="24" as="geometry" />
        </mxCell>
        <mxCell id="fj_ThK01r2m-MzO2AXcp-39" value="&lt;p style=&quot;margin:0px;margin-top:4px;text-align:center;&quot;&gt;&lt;b&gt;GameRoundSix&lt;/b&gt;&lt;/p&gt;&lt;p style=&quot;margin:0px;margin-left:4px;&quot;&gt;&lt;br&gt;&lt;/p&gt;" style="verticalAlign=top;align=left;overflow=fill;html=1;whiteSpace=wrap;labelBackgroundColor=none;fillColor=none;fontColor=#FFFFFF;strokeColor=#FFFFFF;strokeWidth=2;" parent="1" vertex="1">
          <mxGeometry x="190" y="680" width="127" height="24" as="geometry" />
        </mxCell>
        <mxCell id="fj_ThK01r2m-MzO2AXcp-40" value="&lt;p style=&quot;margin:0px;margin-top:4px;text-align:center;&quot;&gt;&lt;b&gt;GameRoundFive&lt;/b&gt;&lt;/p&gt;&lt;p style=&quot;margin:0px;margin-left:4px;&quot;&gt;&lt;br&gt;&lt;/p&gt;" style="verticalAlign=top;align=left;overflow=fill;html=1;whiteSpace=wrap;labelBackgroundColor=none;fillColor=none;fontColor=#FFFFFF;strokeColor=#FFFFFF;strokeWidth=2;" parent="1" vertex="1">
          <mxGeometry x="190" y="640" width="127" height="24" as="geometry" />
        </mxCell>
        <mxCell id="fj_ThK01r2m-MzO2AXcp-41" value="&lt;p style=&quot;margin:0px;margin-top:4px;text-align:center;&quot;&gt;&lt;b&gt;GameRoundSeven&lt;/b&gt;&lt;/p&gt;&lt;p style=&quot;margin:0px;margin-left:4px;&quot;&gt;&lt;br&gt;&lt;/p&gt;" style="verticalAlign=top;align=left;overflow=fill;html=1;whiteSpace=wrap;labelBackgroundColor=none;fillColor=none;fontColor=#FFFFFF;strokeColor=#FFFFFF;strokeWidth=2;" parent="1" vertex="1">
          <mxGeometry x="190" y="720" width="127" height="24" as="geometry" />
        </mxCell>
        <mxCell id="fj_ThK01r2m-MzO2AXcp-51" value="" style="endArrow=open;endFill=1;endSize=12;html=1;rounded=0;strokeColor=#FFFFFF;align=center;verticalAlign=middle;fontFamily=Helvetica;fontSize=11;fontColor=default;labelBackgroundColor=default;edgeStyle=segmentEdgeStyle;curved=0;exitX=0.5;exitY=1;exitDx=0;exitDy=0;entryX=0.5;entryY=0;entryDx=0;entryDy=0;" parent="1" source="fj_ThK01r2m-MzO2AXcp-4" target="ILToKURg6AyfO6B2Wtye-19" edge="1">
          <mxGeometry width="160" relative="1" as="geometry">
            <mxPoint x="390" y="870" as="sourcePoint" />
            <mxPoint x="550" y="870" as="targetPoint" />
          </mxGeometry>
        </mxCell>
        <mxCell id="fj_ThK01r2m-MzO2AXcp-53" value="" style="endArrow=open;endFill=1;endSize=12;html=1;rounded=0;strokeColor=#FFFFFF;align=center;verticalAlign=middle;fontFamily=Helvetica;fontSize=11;fontColor=default;labelBackgroundColor=default;edgeStyle=segmentEdgeStyle;curved=0;entryX=0.5;entryY=0;entryDx=0;entryDy=0;" parent="1" target="ILToKURg6AyfO6B2Wtye-20" edge="1">
          <mxGeometry width="160" relative="1" as="geometry">
            <mxPoint x="640" y="590" as="sourcePoint" />
            <mxPoint x="530" y="780" as="targetPoint" />
          </mxGeometry>
        </mxCell>
        <mxCell id="fj_ThK01r2m-MzO2AXcp-55" value="&lt;p style=&quot;margin:0px;margin-top:4px;text-align:center;&quot;&gt;&lt;b&gt;RoundDifficultySelectMenuController&lt;/b&gt;&lt;/p&gt;&lt;hr style=&quot;border-style:solid;&quot; size=&quot;1&quot;&gt;&lt;p style=&quot;margin:0px;margin-left:4px;&quot;&gt;&lt;br&gt;&lt;/p&gt;&lt;hr style=&quot;border-style:solid;&quot; size=&quot;1&quot;&gt;&lt;p style=&quot;margin:0px;margin-left:4px;&quot;&gt;&lt;br&gt;&lt;/p&gt;" style="verticalAlign=top;align=left;overflow=fill;html=1;whiteSpace=wrap;labelBackgroundColor=none;fillColor=none;fontColor=#FFFFFF;strokeColor=#FFFFFF;strokeWidth=2;" parent="1" vertex="1">
          <mxGeometry x="680" width="240" height="80" as="geometry" />
        </mxCell>
        <mxCell id="fj_ThK01r2m-MzO2AXcp-57" value="&lt;p style=&quot;margin:0px;margin-top:4px;text-align:center;&quot;&gt;&lt;b&gt;MainMenuController&lt;/b&gt;&lt;/p&gt;&lt;hr style=&quot;border-style:solid;&quot; size=&quot;1&quot;&gt;&lt;p style=&quot;margin:0px;margin-left:4px;&quot;&gt;&lt;br&gt;&lt;/p&gt;&lt;hr style=&quot;border-style:solid;&quot; size=&quot;1&quot;&gt;&lt;p style=&quot;margin:0px;margin-left:4px;&quot;&gt;&lt;br&gt;&lt;/p&gt;" style="verticalAlign=top;align=left;overflow=fill;html=1;whiteSpace=wrap;labelBackgroundColor=none;fillColor=none;fontColor=#FFFFFF;strokeColor=#FFFFFF;strokeWidth=2;" parent="1" vertex="1">
          <mxGeometry x="1240" y="-200" width="240" height="80" as="geometry" />
        </mxCell>
        <mxCell id="fj_ThK01r2m-MzO2AXcp-58" value="&lt;p style=&quot;margin:0px;margin-top:4px;text-align:center;&quot;&gt;&lt;b&gt;App&lt;/b&gt;&lt;/p&gt;&lt;hr style=&quot;border-style:solid;&quot; size=&quot;1&quot;&gt;&lt;p style=&quot;margin:0px;margin-left:4px;&quot;&gt;+ main(String[]): void&lt;/p&gt;" style="verticalAlign=top;align=left;overflow=fill;html=1;whiteSpace=wrap;labelBackgroundColor=none;fillColor=none;fontColor=#FFFFFF;strokeColor=#FFFFFF;strokeWidth=2;" parent="1" vertex="1">
          <mxGeometry x="840" y="-360" width="240" height="80" as="geometry" />
        </mxCell>
        <mxCell id="fj_ThK01r2m-MzO2AXcp-61" value="&lt;p style=&quot;margin:0px;margin-top:4px;text-align:center;&quot;&gt;&lt;b&gt;MainGameController&lt;/b&gt;&lt;/p&gt;&lt;hr style=&quot;border-style:solid;&quot; size=&quot;1&quot;&gt;&lt;p style=&quot;margin:0px;margin-left:4px;&quot;&gt;&lt;br&gt;&lt;/p&gt;&lt;hr style=&quot;border-style:solid;&quot; size=&quot;1&quot;&gt;&lt;p style=&quot;margin:0px;margin-left:4px;&quot;&gt;&lt;br&gt;&lt;/p&gt;" style="verticalAlign=top;align=left;overflow=fill;html=1;whiteSpace=wrap;labelBackgroundColor=none;fillColor=none;fontColor=#FFFFFF;strokeColor=#FFFFFF;strokeWidth=2;" parent="1" vertex="1">
          <mxGeometry x="1000" width="240" height="80" as="geometry" />
        </mxCell>
        <mxCell id="fj_ThK01r2m-MzO2AXcp-62" value="&lt;p style=&quot;margin:0px;margin-top:4px;text-align:center;&quot;&gt;&lt;b&gt;ShopGameController&lt;/b&gt;&lt;/p&gt;&lt;hr style=&quot;border-style:solid;&quot; size=&quot;1&quot;&gt;&lt;p style=&quot;margin:0px;margin-left:4px;&quot;&gt;&lt;br&gt;&lt;/p&gt;&lt;hr style=&quot;border-style:solid;&quot; size=&quot;1&quot;&gt;&lt;p style=&quot;margin:0px;margin-left:4px;&quot;&gt;&lt;br&gt;&lt;/p&gt;" style="verticalAlign=top;align=left;overflow=fill;html=1;whiteSpace=wrap;labelBackgroundColor=none;fillColor=none;fontColor=#FFFFFF;strokeColor=#FFFFFF;strokeWidth=2;" parent="1" vertex="1">
          <mxGeometry x="1320" width="240" height="80" as="geometry" />
        </mxCell>
        <mxCell id="fj_ThK01r2m-MzO2AXcp-63" value="&lt;p style=&quot;margin:0px;margin-top:4px;text-align:center;&quot;&gt;&lt;b&gt;Shop&lt;/b&gt;&lt;/p&gt;&lt;hr style=&quot;border-style:solid;&quot; size=&quot;1&quot;&gt;&lt;p style=&quot;margin:0px;margin-left:4px;&quot;&gt;- items: ArrayList&amp;lt;Purchasable&amp;gt;&lt;br&gt;&lt;/p&gt;&lt;hr style=&quot;border-style:solid;&quot; size=&quot;1&quot;&gt;&lt;p style=&quot;margin:0px;margin-left:4px;&quot;&gt;&lt;br&gt;&lt;/p&gt;" style="verticalAlign=top;align=left;overflow=fill;html=1;whiteSpace=wrap;labelBackgroundColor=none;fillColor=none;fontColor=#FFFFFF;strokeColor=#FFFFFF;strokeWidth=2;" parent="1" vertex="1">
          <mxGeometry x="1440" y="200" width="240" height="80" as="geometry" />
        </mxCell>
        <mxCell id="fj_ThK01r2m-MzO2AXcp-64" value="" style="endArrow=open;endFill=1;endSize=12;html=1;rounded=0;strokeColor=#FFFFFF;align=center;verticalAlign=middle;fontFamily=Helvetica;fontSize=11;fontColor=default;labelBackgroundColor=default;edgeStyle=segmentEdgeStyle;curved=0;exitX=1;exitY=0.5;exitDx=0;exitDy=0;" parent="1" source="ILToKURg6AyfO6B2Wtye-21" edge="1">
          <mxGeometry width="160" relative="1" as="geometry">
            <mxPoint x="920" y="350" as="sourcePoint" />
            <mxPoint x="840" y="300" as="targetPoint" />
          </mxGeometry>
        </mxCell>
        <mxCell id="fj_ThK01r2m-MzO2AXcp-65" value="" style="endArrow=open;endFill=1;endSize=12;html=1;rounded=0;strokeColor=#FFFFFF;align=center;verticalAlign=middle;fontFamily=Helvetica;fontSize=11;fontColor=default;labelBackgroundColor=default;exitX=0.75;exitY=1;exitDx=0;exitDy=0;entryX=0;entryY=0.25;entryDx=0;entryDy=0;edgeStyle=orthogonalEdgeStyle;" parent="1" source="ILToKURg6AyfO6B2Wtye-40" target="ILToKURg6AyfO6B2Wtye-16" edge="1">
          <mxGeometry width="160" relative="1" as="geometry">
            <mxPoint x="920" y="350" as="sourcePoint" />
            <mxPoint x="1080" y="350" as="targetPoint" />
          </mxGeometry>
        </mxCell>
        <mxCell id="fj_ThK01r2m-MzO2AXcp-66" value="" style="endArrow=open;endFill=1;endSize=12;html=1;rounded=0;strokeColor=#FFFFFF;align=center;verticalAlign=middle;fontFamily=Helvetica;fontSize=11;fontColor=default;labelBackgroundColor=default;edgeStyle=segmentEdgeStyle;curved=0;exitX=0.5;exitY=1;exitDx=0;exitDy=0;entryX=0.5;entryY=0;entryDx=0;entryDy=0;" parent="1" source="fj_ThK01r2m-MzO2AXcp-63" target="ILToKURg6AyfO6B2Wtye-42" edge="1">
          <mxGeometry width="160" relative="1" as="geometry">
            <mxPoint x="1110" y="470" as="sourcePoint" />
            <mxPoint x="1270" y="470" as="targetPoint" />
          </mxGeometry>
        </mxCell>
        <mxCell id="fj_ThK01r2m-MzO2AXcp-67" value="" style="endArrow=open;endFill=1;endSize=12;html=1;rounded=0;strokeColor=#FFFFFF;align=center;verticalAlign=middle;fontFamily=Helvetica;fontSize=11;fontColor=default;labelBackgroundColor=default;edgeStyle=elbowEdgeStyle;exitX=0.75;exitY=0;exitDx=0;exitDy=0;entryX=0.25;entryY=0;entryDx=0;entryDy=0;elbow=vertical;" parent="1" source="ILToKURg6AyfO6B2Wtye-21" target="fj_ThK01r2m-MzO2AXcp-63" edge="1">
          <mxGeometry width="160" relative="1" as="geometry">
            <mxPoint x="840" y="470" as="sourcePoint" />
            <mxPoint x="1000" y="470" as="targetPoint" />
            <Array as="points">
              <mxPoint x="1030" y="160" />
            </Array>
          </mxGeometry>
        </mxCell>
        <mxCell id="fj_ThK01r2m-MzO2AXcp-68" value="" style="endArrow=open;endFill=1;endSize=12;html=1;rounded=0;strokeColor=#FFFFFF;align=center;verticalAlign=middle;fontFamily=Helvetica;fontSize=11;fontColor=default;labelBackgroundColor=default;edgeStyle=elbowEdgeStyle;exitX=1;exitY=0.5;exitDx=0;exitDy=0;entryX=0;entryY=0.25;entryDx=0;entryDy=0;" parent="1" source="ILToKURg6AyfO6B2Wtye-20" target="ILToKURg6AyfO6B2Wtye-17" edge="1">
          <mxGeometry width="160" relative="1" as="geometry">
            <mxPoint x="970" y="890" as="sourcePoint" />
            <mxPoint x="1130" y="890" as="targetPoint" />
          </mxGeometry>
        </mxCell>
        <mxCell id="fj_ThK01r2m-MzO2AXcp-69" value="" style="endArrow=open;endFill=1;endSize=12;html=1;rounded=0;strokeColor=#FFFFFF;align=center;verticalAlign=middle;fontFamily=Helvetica;fontSize=11;fontColor=default;labelBackgroundColor=default;edgeStyle=elbowEdgeStyle;exitX=0.5;exitY=1;exitDx=0;exitDy=0;entryX=0.5;entryY=0;entryDx=0;entryDy=0;elbow=vertical;" parent="1" source="ILToKURg6AyfO6B2Wtye-21" target="fj_ThK01r2m-MzO2AXcp-4" edge="1">
          <mxGeometry width="160" relative="1" as="geometry">
            <mxPoint x="580" y="580" as="sourcePoint" />
            <mxPoint x="740" y="580" as="targetPoint" />
          </mxGeometry>
        </mxCell>
        <mxCell id="fj_ThK01r2m-MzO2AXcp-75" value="" style="endArrow=block;dashed=1;endFill=0;endSize=12;html=1;rounded=0;strokeColor=#FFFFFF;align=center;verticalAlign=middle;fontFamily=Helvetica;fontSize=11;fontColor=default;labelBackgroundColor=default;entryX=0;entryY=0.5;entryDx=0;entryDy=0;" parent="1" target="fj_ThK01r2m-MzO2AXcp-4" edge="1">
          <mxGeometry width="160" relative="1" as="geometry">
            <mxPoint x="360" y="590" as="sourcePoint" />
            <mxPoint x="470" y="580" as="targetPoint" />
          </mxGeometry>
        </mxCell>
        <mxCell id="fj_ThK01r2m-MzO2AXcp-76" value="" style="endArrow=none;dashed=1;endFill=0;endSize=12;html=1;rounded=0;strokeColor=#FFFFFF;align=center;verticalAlign=middle;fontFamily=Helvetica;fontSize=11;fontColor=default;labelBackgroundColor=default;exitX=1;exitY=0.5;exitDx=0;exitDy=0;edgeStyle=orthogonalEdgeStyle;" parent="1" source="fj_ThK01r2m-MzO2AXcp-33" edge="1">
          <mxGeometry width="160" relative="1" as="geometry">
            <mxPoint x="310" y="580" as="sourcePoint" />
            <mxPoint x="360" y="590" as="targetPoint" />
          </mxGeometry>
        </mxCell>
        <mxCell id="fj_ThK01r2m-MzO2AXcp-79" value="" style="endArrow=none;dashed=1;endFill=0;endSize=12;html=1;rounded=0;strokeColor=#FFFFFF;align=center;verticalAlign=middle;fontFamily=Helvetica;fontSize=11;fontColor=default;labelBackgroundColor=default;edgeStyle=segmentEdgeStyle;curved=0;exitX=1;exitY=0.5;exitDx=0;exitDy=0;" parent="1" source="fj_ThK01r2m-MzO2AXcp-41" edge="1">
          <mxGeometry width="160" relative="1" as="geometry">
            <mxPoint x="310" y="580" as="sourcePoint" />
            <mxPoint x="360" y="590" as="targetPoint" />
          </mxGeometry>
        </mxCell>
        <mxCell id="fj_ThK01r2m-MzO2AXcp-80" value="" style="endArrow=none;dashed=1;endFill=0;endSize=12;html=1;rounded=0;strokeColor=#FFFFFF;align=center;verticalAlign=middle;fontFamily=Helvetica;fontSize=11;fontColor=default;labelBackgroundColor=default;edgeStyle=segmentEdgeStyle;curved=0;exitX=1;exitY=0.5;exitDx=0;exitDy=0;" parent="1" source="fj_ThK01r2m-MzO2AXcp-39" edge="1">
          <mxGeometry width="160" relative="1" as="geometry">
            <mxPoint x="310" y="580" as="sourcePoint" />
            <mxPoint x="360" y="700" as="targetPoint" />
          </mxGeometry>
        </mxCell>
        <mxCell id="fj_ThK01r2m-MzO2AXcp-81" value="" style="endArrow=none;dashed=1;endFill=0;endSize=12;html=1;rounded=0;strokeColor=#FFFFFF;align=center;verticalAlign=middle;fontFamily=Helvetica;fontSize=11;fontColor=default;labelBackgroundColor=default;edgeStyle=segmentEdgeStyle;curved=0;exitX=1;exitY=0.5;exitDx=0;exitDy=0;" parent="1" source="fj_ThK01r2m-MzO2AXcp-40" edge="1">
          <mxGeometry width="160" relative="1" as="geometry">
            <mxPoint x="330" y="650" as="sourcePoint" />
            <mxPoint x="360" y="652" as="targetPoint" />
          </mxGeometry>
        </mxCell>
        <mxCell id="fj_ThK01r2m-MzO2AXcp-82" value="" style="endArrow=none;dashed=1;endFill=0;endSize=12;html=1;rounded=0;strokeColor=#FFFFFF;align=center;verticalAlign=middle;fontFamily=Helvetica;fontSize=11;fontColor=default;labelBackgroundColor=default;edgeStyle=segmentEdgeStyle;curved=0;exitX=1;exitY=0.5;exitDx=0;exitDy=0;" parent="1" source="fj_ThK01r2m-MzO2AXcp-38" edge="1">
          <mxGeometry width="160" relative="1" as="geometry">
            <mxPoint x="327" y="662" as="sourcePoint" />
            <mxPoint x="360" y="612" as="targetPoint" />
          </mxGeometry>
        </mxCell>
        <mxCell id="fj_ThK01r2m-MzO2AXcp-83" value="" style="endArrow=none;dashed=1;endFill=0;endSize=12;html=1;rounded=0;strokeColor=#FFFFFF;align=center;verticalAlign=middle;fontFamily=Helvetica;fontSize=11;fontColor=default;labelBackgroundColor=default;edgeStyle=segmentEdgeStyle;curved=0;exitX=1;exitY=0.5;exitDx=0;exitDy=0;" parent="1" source="fj_ThK01r2m-MzO2AXcp-37" edge="1">
          <mxGeometry width="160" relative="1" as="geometry">
            <mxPoint x="337" y="672" as="sourcePoint" />
            <mxPoint x="360" y="570" as="targetPoint" />
          </mxGeometry>
        </mxCell>
        <mxCell id="fj_ThK01r2m-MzO2AXcp-84" value="" style="endArrow=none;dashed=1;endFill=0;endSize=12;html=1;rounded=0;strokeColor=#FFFFFF;align=center;verticalAlign=middle;fontFamily=Helvetica;fontSize=11;fontColor=default;labelBackgroundColor=default;edgeStyle=segmentEdgeStyle;curved=0;exitX=1;exitY=0.5;exitDx=0;exitDy=0;" parent="1" source="fj_ThK01r2m-MzO2AXcp-35" edge="1">
          <mxGeometry width="160" relative="1" as="geometry">
            <mxPoint x="320" y="552" as="sourcePoint" />
            <mxPoint x="360" y="532" as="targetPoint" />
          </mxGeometry>
        </mxCell>
        <mxCell id="fj_ThK01r2m-MzO2AXcp-85" value="" style="endArrow=none;dashed=1;endFill=0;endSize=12;html=1;rounded=0;strokeColor=#FFFFFF;align=center;verticalAlign=middle;fontFamily=Helvetica;fontSize=11;fontColor=default;labelBackgroundColor=default;edgeStyle=segmentEdgeStyle;curved=0;exitX=1;exitY=0.5;exitDx=0;exitDy=0;" parent="1" source="fj_ThK01r2m-MzO2AXcp-34" edge="1">
          <mxGeometry width="160" relative="1" as="geometry">
            <mxPoint x="337" y="592" as="sourcePoint" />
            <mxPoint x="360" y="490" as="targetPoint" />
          </mxGeometry>
        </mxCell>
        <mxCell id="YYHcGzh3mQ78TLflmlGY-1" value="" style="endArrow=open;endFill=1;endSize=12;html=1;rounded=0;exitX=0.5;exitY=1;exitDx=0;exitDy=0;entryX=0.5;entryY=0;entryDx=0;entryDy=0;strokeColor=#FFFFFF;" edge="1" parent="1" source="fj_ThK01r2m-MzO2AXcp-58" target="ILToKURg6AyfO6B2Wtye-4">
          <mxGeometry width="160" relative="1" as="geometry">
            <mxPoint x="933" y="-36" as="sourcePoint" />
            <mxPoint x="1093" y="-36" as="targetPoint" />
          </mxGeometry>
        </mxCell>
      </root>
    </mxGraphModel>
  </diagram>
</mxfile>
